C:\Users\israe\Dropbox\PhDWork\Simulation\code\PassiveMoments\Data/emgFiles.mot
nRows=5
nColumns=40

name C:\Users\israe\Dropbox\PhDWork\Simulation\code\PassiveMoments\Data/emgFiles.mot
datacolumns 40
datarows 5
range 0.5700000000 0.6100000000
endheader
time	addbrev	addlong	addmagDist	addmagIsch	addmagMid	addmagProx	bflh	bfsh	edl	ehl	fdl	fhl	gaslat	gasmed	glmax1	glmax2	glmax3	glmed1	glmed2	glmed3	glmin1	glmin2	glmin3	grac	iliacus	perbrev	perlong	psoas	recfem	sart	semimem	semiten	soleus	tfl	tibant	tibpost	vasint	vaslat	vasmed
        0.5700000000	        0.0000000000	        0.0000000000	        0.1601979167	        0.1601979167	        0.1601979167	        0.1601979167	        0.1880562797	        0.0000000000	        0.2698930038	        0.2150839736	        0.0000000000	        0.0000000000	        0.0000000000	        0.0000000000	        0.0370555495	        0.0370555495	        0.0370555495	        0.0183765397	        0.0183765397	        0.0183765397	        0.0183765397	        0.0183765397	        0.0183765397	        0.0000000000	        0.0000000000	        0.0000000000	        0.0000000000	        0.0000000000	        0.0000000000	        0.0000000000	        0.3300481315	        0.1735066040	        0.0000000000	        0.0000000000	        0.2840427581	        0.0000000000	        0.0266447106	        0.1295228013	        0.0909878076	
        0.5800000000	        0.0000000000	        0.0000000000	        0.1993273835	        0.1993273835	        0.1993273835	        0.1993273835	        0.1815014678	        0.0000000000	        0.2763897334	        0.2326396546	        0.0000000000	        0.0000000000	        0.0000000000	        0.0000000000	        0.0600152796	        0.0600152796	        0.0600152796	        0.0351628912	        0.0351628912	        0.0351628912	        0.0351628912	        0.0351628912	        0.0351628912	        0.0000000000	        0.0000000000	        0.0000000000	        0.0000000000	        0.0000000000	        0.0000000000	        0.0000000000	        0.3079568282	        0.1712920128	        0.0000000000	        0.0000000000	        0.3123594202	        0.0000000000	        0.0452080264	        0.1412547217	        0.0982660187	
        0.5900000000	        0.0000000000	        0.0000000000	        0.2367674568	        0.2367674568	        0.2367674568	        0.2367674568	        0.1708747202	        0.0000000000	        0.2826177953	        0.2479432705	        0.0000000000	        0.0000000000	        0.0000000000	        0.0000000000	        0.0868740734	        0.0868740734	        0.0868740734	        0.0564908725	        0.0564908725	        0.0564908725	        0.0564908725	        0.0564908725	        0.0564908725	        0.0000000000	        0.0000000000	        0.0000000000	        0.0000000000	        0.0000000000	        0.0000000000	        0.0000000000	        0.2821610707	        0.1589795142	        0.0000000000	        0.0000000000	        0.3419124899	        0.0000000000	        0.0704737578	        0.1522591856	        0.1092023772	
        0.6000000000	        0.0000000000	        0.0000000000	        0.2735176109	        0.2735176109	        0.2735176109	        0.2735176109	        0.1587216950	        0.0000000000	        0.2869243549	        0.2565958099	        0.0000000000	        0.0000000000	        0.0000000000	        0.0000000000	        0.1173688192	        0.1173688192	        0.1173688192	        0.0827946347	        0.0827946347	        0.0827946347	        0.0827946347	        0.0827946347	        0.0827946347	        0.0000000000	        0.0000000000	        0.0000000000	        0.0000000000	        0.0000000000	        0.0000000000	        0.0000000000	        0.2567346746	        0.1402258762	        0.0000000000	        0.0000000000	        0.3666248127	        0.0000000000	        0.0992650786	        0.1618853294	        0.1245627552	
        0.6100000000	        0.0000000000	        0.0000000000	        0.3082244415	        0.3082244415	        0.3082244415	        0.3082244415	        0.1489500995	        0.0000000000	        0.2898481099	        0.2611102514	        0.0000000000	        0.0000000000	        0.0000000000	        0.0000000000	        0.1457867320	        0.1457867320	        0.1457867320	        0.1115903472	        0.1115903472	        0.1115903472	        0.1115903472	        0.1115903472	        0.1115903472	        0.0000000000	        0.0000000000	        0.0000000000	        0.0000000000	        0.0000000000	        0.0000000000	        0.0000000000	        0.2324577476	        0.1210287947	        0.0000000000	        0.0000000000	        0.3861754216	        0.0000000000	        0.1245128937	        0.1691000726	        0.1426533089	
